<?xml version="1.0" encoding="UTF-8"?><svg xmlns="http://www.w3.org/2000/svg" xmlns:xlink="http://www.w3.org/1999/xlink" fill-opacity="1" color-rendering="auto" color-interpolation="auto" text-rendering="auto" stroke="black" stroke-linecap="square" width="648" stroke-miterlimit="10" shape-rendering="auto" stroke-opacity="1" fill="black" stroke-dasharray="none" font-weight="normal" stroke-width="1" height="768" font-family="'Dialog'" font-style="normal" stroke-linejoin="miter" font-size="12px" stroke-dashoffset="0" image-rendering="auto">
  <!--Generated by ySVG 2.6-->
  <defs id="genericDefs"/>
  <g>
    <defs id="defs1">
      <clipPath clipPathUnits="userSpaceOnUse" id="clipPath1">
        <path d="M0 0 L648 0 L648 768 L0 768 L0 0 Z"/>
      </clipPath>
      <clipPath clipPathUnits="userSpaceOnUse" id="clipPath2">
        <path d="M136 164 L784 164 L784 932 L136 932 L136 164 Z"/>
      </clipPath>
    </defs>
    <g fill="white" text-rendering="geometricPrecision" shape-rendering="geometricPrecision" transform="translate(-136,-164)" stroke="white">
      <rect x="136" width="648" height="768" y="164" clip-path="url(#clipPath2)" stroke="none"/>
    </g>
    <g fill="rgb(255,204,0)" text-rendering="geometricPrecision" shape-rendering="geometricPrecision" transform="matrix(1,0,0,1,-136,-164)" stroke="rgb(255,204,0)">
      <path d="M291 217 L376 217 L376 232 L391 232 L391 245 L291 245 Z" stroke="none" clip-path="url(#clipPath2)"/>
      <path fill="white" d="M376 217 L376 232 L391 232 Z" clip-path="url(#clipPath2)" fill-rule="evenodd" stroke="none"/>
    </g>
    <g text-rendering="geometricPrecision" stroke-miterlimit="1.45" shape-rendering="geometricPrecision" transform="matrix(1,0,0,1,-136,-164)" stroke-linecap="butt">
      <path fill="none" d="M291 217 L376 217 L376 232 L391 232 L391 245 L291 245 Z" clip-path="url(#clipPath2)"/>
      <path fill="none" d="M376 217 L376 232 L391 232 Z" clip-path="url(#clipPath2)" fill-rule="evenodd"/>
      <text x="317.1138" xml:space="preserve" y="235.656" clip-path="url(#clipPath2)" font-family="sans-serif" stroke="none">bib-num</text>
    </g>
    <g fill="rgb(255,204,0)" text-rendering="geometricPrecision" shape-rendering="geometricPrecision" transform="matrix(1,0,0,1,-136,-164)" stroke="rgb(255,204,0)">
      <path d="M416.8 245 L501.8 245 L501.8 260 L516.8 260 L516.8 273 L416.8 273 Z" stroke="none" clip-path="url(#clipPath2)"/>
      <path fill="white" d="M501.8 245 L501.8 260 L516.8 260 Z" clip-path="url(#clipPath2)" fill-rule="evenodd" stroke="none"/>
    </g>
    <g text-rendering="geometricPrecision" stroke-miterlimit="1.45" shape-rendering="geometricPrecision" transform="matrix(1,0,0,1,-136,-164)" stroke-linecap="butt">
      <path fill="none" d="M416.8 245 L501.8 245 L501.8 260 L516.8 260 L516.8 273 L416.8 273 Z" clip-path="url(#clipPath2)"/>
      <path fill="none" d="M501.8 245 L501.8 260 L516.8 260 Z" clip-path="url(#clipPath2)" fill-rule="evenodd"/>
      <text x="444.9718" xml:space="preserve" y="263.656" clip-path="url(#clipPath2)" font-family="sans-serif" stroke="none">sources</text>
    </g>
    <g fill="rgb(255,204,0)" text-rendering="geometricPrecision" shape-rendering="geometricPrecision" transform="matrix(1,0,0,1,-136,-164)" stroke="rgb(255,204,0)">
      <path d="M546.8 273 L631.8 273 L631.8 288 L646.8 288 L646.8 301 L546.8 301 Z" stroke="none" clip-path="url(#clipPath2)"/>
      <path fill="white" d="M631.8 273 L631.8 288 L646.8 288 Z" clip-path="url(#clipPath2)" fill-rule="evenodd" stroke="none"/>
    </g>
    <g text-rendering="geometricPrecision" stroke-miterlimit="1.45" shape-rendering="geometricPrecision" transform="matrix(1,0,0,1,-136,-164)" stroke-linecap="butt">
      <path fill="none" d="M546.8 273 L631.8 273 L631.8 288 L646.8 288 L646.8 301 L546.8 301 Z" clip-path="url(#clipPath2)"/>
      <path fill="none" d="M631.8 273 L631.8 288 L646.8 288 Z" clip-path="url(#clipPath2)" fill-rule="evenodd"/>
      <text x="573.5139" xml:space="preserve" y="291.656" clip-path="url(#clipPath2)" font-family="sans-serif" stroke="none">archives</text>
    </g>
    <g fill="rgb(255,204,0)" text-rendering="geometricPrecision" shape-rendering="geometricPrecision" transform="matrix(1,0,0,1,-136,-164)" stroke="rgb(255,204,0)">
      <path d="M546.8 316.56 L631.8 316.56 L631.8 331.56 L646.8 331.56 L646.8 344.56 L546.8 344.56 Z" stroke="none" clip-path="url(#clipPath2)"/>
      <path fill="white" d="M631.8 316.56 L631.8 331.56 L646.8 331.56 Z" clip-path="url(#clipPath2)" fill-rule="evenodd" stroke="none"/>
    </g>
    <g text-rendering="geometricPrecision" stroke-miterlimit="1.45" shape-rendering="geometricPrecision" transform="matrix(1,0,0,1,-136,-164)" stroke-linecap="butt">
      <path fill="none" d="M546.8 316.56 L631.8 316.56 L631.8 331.56 L646.8 331.56 L646.8 344.56 L546.8 344.56 Z" clip-path="url(#clipPath2)"/>
      <path fill="none" d="M631.8 316.56 L631.8 331.56 L646.8 331.56 Z" clip-path="url(#clipPath2)" fill-rule="evenodd"/>
      <text x="576.3699" xml:space="preserve" y="335.216" clip-path="url(#clipPath2)" font-family="sans-serif" stroke="none">editees</text>
    </g>
    <g fill="rgb(255,204,0)" text-rendering="geometricPrecision" shape-rendering="geometricPrecision" transform="matrix(1,0,0,1,-136,-164)" stroke="rgb(255,204,0)">
      <path d="M416.8 360.12 L501.8 360.12 L501.8 375.12 L516.8 375.12 L516.8 388.12 L416.8 388.12 Z" stroke="none" clip-path="url(#clipPath2)"/>
      <path fill="white" d="M501.8 360.12 L501.8 375.12 L516.8 375.12 Z" clip-path="url(#clipPath2)" fill-rule="evenodd" stroke="none"/>
    </g>
    <g text-rendering="geometricPrecision" stroke-miterlimit="1.45" shape-rendering="geometricPrecision" transform="matrix(1,0,0,1,-136,-164)" stroke-linecap="butt">
      <path fill="none" d="M416.8 360.12 L501.8 360.12 L501.8 375.12 L516.8 375.12 L516.8 388.12 L416.8 388.12 Z" clip-path="url(#clipPath2)"/>
      <path fill="none" d="M501.8 360.12 L501.8 375.12 L516.8 375.12 Z" clip-path="url(#clipPath2)" fill-rule="evenodd"/>
      <text x="447.5939" xml:space="preserve" y="378.776" clip-path="url(#clipPath2)" font-family="sans-serif" stroke="none">etudes</text>
    </g>
    <g fill="white" text-rendering="geometricPrecision" shape-rendering="geometricPrecision" transform="matrix(1,0,0,1,-136,-164)" stroke="white">
      <path d="M673.52 416.12 L768.24 416.12 L768.24 426.44 Q768.24 436.44 758.24 436.44 L683.52 436.44 Q673.52 436.44 673.52 426.44 Z" stroke="none" clip-path="url(#clipPath2)"/>
    </g>
    <g text-rendering="geometricPrecision" stroke-miterlimit="1.45" shape-rendering="geometricPrecision" transform="matrix(1,0,0,1,-136,-164)" stroke-linecap="butt">
      <path fill="none" d="M673.52 416.12 L768.24 416.12 L768.24 426.44 Q768.24 436.44 758.24 436.44 L683.52 436.44 Q673.52 436.44 673.52 426.44 Z" clip-path="url(#clipPath2)"/>
      <text x="705.1179" xml:space="preserve" y="430.936" clip-path="url(#clipPath2)" font-family="sans-serif" stroke="none">notes</text>
    </g>
    <g fill="rgb(255,204,0)" text-rendering="geometricPrecision" shape-rendering="geometricPrecision" transform="matrix(1,0,0,1,-136,-164)" stroke="rgb(255,204,0)">
      <path d="M546.8 388.12 L631.8 388.12 L631.8 403.12 L646.8 403.12 L646.8 416.12 L546.8 416.12 Z" stroke="none" clip-path="url(#clipPath2)"/>
      <path fill="white" d="M631.8 388.12 L631.8 403.12 L646.8 403.12 Z" clip-path="url(#clipPath2)" fill-rule="evenodd" stroke="none"/>
    </g>
    <g text-rendering="geometricPrecision" stroke-miterlimit="1.45" shape-rendering="geometricPrecision" transform="matrix(1,0,0,1,-136,-164)" stroke-linecap="butt">
      <path fill="none" d="M546.8 388.12 L631.8 388.12 L631.8 403.12 L646.8 403.12 L646.8 416.12 L546.8 416.12 Z" clip-path="url(#clipPath2)"/>
      <path fill="none" d="M631.8 388.12 L631.8 403.12 L646.8 403.12 Z" clip-path="url(#clipPath2)" fill-rule="evenodd"/>
      <text x="579.4958" xml:space="preserve" y="406.776" clip-path="url(#clipPath2)" font-family="sans-serif" stroke="none">livre-a</text>
    </g>
    <g fill="white" text-rendering="geometricPrecision" shape-rendering="geometricPrecision" transform="matrix(1,0,0,1,-136,-164)" stroke="white">
      <path d="M673.52 446.4 L768.24 446.4 L768.24 456.72 Q768.24 466.72 758.24 466.72 L683.52 466.72 Q673.52 466.72 673.52 456.72 Z" stroke="none" clip-path="url(#clipPath2)"/>
    </g>
    <g text-rendering="geometricPrecision" stroke-miterlimit="1.45" shape-rendering="geometricPrecision" transform="matrix(1,0,0,1,-136,-164)" stroke-linecap="butt">
      <path fill="none" d="M673.52 446.4 L768.24 446.4 L768.24 456.72 Q768.24 466.72 758.24 466.72 L683.52 466.72 Q673.52 466.72 673.52 456.72 Z" clip-path="url(#clipPath2)"/>
      <text x="698.6918" xml:space="preserve" y="461.216" clip-path="url(#clipPath2)" font-family="sans-serif" stroke="none">photo-1</text>
    </g>
    <g fill="white" text-rendering="geometricPrecision" shape-rendering="geometricPrecision" transform="matrix(1,0,0,1,-136,-164)" stroke="white">
      <path d="M673.52 476.68 L768.24 476.68 L768.24 487 Q768.24 497 758.24 497 L683.52 497 Q673.52 497 673.52 487 Z" stroke="none" clip-path="url(#clipPath2)"/>
    </g>
    <g text-rendering="geometricPrecision" stroke-miterlimit="1.45" shape-rendering="geometricPrecision" transform="matrix(1,0,0,1,-136,-164)" stroke-linecap="butt">
      <path fill="none" d="M673.52 476.68 L768.24 476.68 L768.24 487 Q768.24 497 758.24 497 L683.52 497 Q673.52 497 673.52 487 Z" clip-path="url(#clipPath2)"/>
      <text x="698.6918" xml:space="preserve" y="491.496" clip-path="url(#clipPath2)" font-family="sans-serif" stroke="none">photo-2</text>
    </g>
    <g fill="rgb(255,204,0)" text-rendering="geometricPrecision" shape-rendering="geometricPrecision" transform="matrix(1,0,0,1,-136,-164)" stroke="rgb(255,204,0)">
      <path d="M291 514.28 L376 514.28 L376 529.28 L391 529.28 L391 542.28 L291 542.28 Z" stroke="none" clip-path="url(#clipPath2)"/>
      <path fill="white" d="M376 514.28 L376 529.28 L391 529.28 Z" clip-path="url(#clipPath2)" fill-rule="evenodd" stroke="none"/>
    </g>
    <g text-rendering="geometricPrecision" stroke-miterlimit="1.45" shape-rendering="geometricPrecision" transform="matrix(1,0,0,1,-136,-164)" stroke-linecap="butt">
      <path fill="none" d="M291 514.28 L376 514.28 L376 529.28 L391 529.28 L391 542.28 L291 542.28 Z" clip-path="url(#clipPath2)"/>
      <path fill="none" d="M376 514.28 L376 529.28 L391 529.28 Z" clip-path="url(#clipPath2)" fill-rule="evenodd"/>
      <text x="316.3338" xml:space="preserve" y="532.936" clip-path="url(#clipPath2)" font-family="sans-serif" stroke="none">missions</text>
    </g>
    <g fill="rgb(255,204,0)" text-rendering="geometricPrecision" shape-rendering="geometricPrecision" transform="matrix(1,0,0,1,-136,-164)" stroke="rgb(255,204,0)">
      <path d="M416.8 542.28 L501.8 542.28 L501.8 557.28 L516.8 557.28 L516.8 570.28 L416.8 570.28 Z" stroke="none" clip-path="url(#clipPath2)"/>
      <path fill="white" d="M501.8 542.28 L501.8 557.28 L516.8 557.28 Z" clip-path="url(#clipPath2)" fill-rule="evenodd" stroke="none"/>
    </g>
    <g text-rendering="geometricPrecision" stroke-miterlimit="1.45" shape-rendering="geometricPrecision" transform="matrix(1,0,0,1,-136,-164)" stroke-linecap="butt">
      <path fill="none" d="M416.8 542.28 L501.8 542.28 L501.8 557.28 L516.8 557.28 L516.8 570.28 L416.8 570.28 Z" clip-path="url(#clipPath2)"/>
      <path fill="none" d="M501.8 542.28 L501.8 557.28 L516.8 557.28 Z" clip-path="url(#clipPath2)" fill-rule="evenodd"/>
      <text x="439.6438" xml:space="preserve" y="560.936" clip-path="url(#clipPath2)" font-family="sans-serif" stroke="none">mission-1</text>
    </g>
    <g fill="rgb(255,204,0)" text-rendering="geometricPrecision" shape-rendering="geometricPrecision" transform="matrix(1,0,0,1,-136,-164)" stroke="rgb(255,204,0)">
      <path d="M416.8 588.68 L501.8 588.68 L501.8 603.68 L516.8 603.68 L516.8 616.68 L416.8 616.68 Z" stroke="none" clip-path="url(#clipPath2)"/>
      <path fill="white" d="M501.8 588.68 L501.8 603.68 L516.8 603.68 Z" clip-path="url(#clipPath2)" fill-rule="evenodd" stroke="none"/>
    </g>
    <g text-rendering="geometricPrecision" stroke-miterlimit="1.45" shape-rendering="geometricPrecision" transform="matrix(1,0,0,1,-136,-164)" stroke-linecap="butt">
      <path fill="none" d="M416.8 588.68 L501.8 588.68 L501.8 603.68 L516.8 603.68 L516.8 616.68 L416.8 616.68 Z" clip-path="url(#clipPath2)"/>
      <path fill="none" d="M501.8 588.68 L501.8 603.68 L516.8 603.68 Z" clip-path="url(#clipPath2)" fill-rule="evenodd"/>
      <text x="439.6438" xml:space="preserve" y="607.3361" clip-path="url(#clipPath2)" font-family="sans-serif" stroke="none">mission-2</text>
    </g>
    <g fill="rgb(255,204,0)" text-rendering="geometricPrecision" shape-rendering="geometricPrecision" transform="matrix(1,0,0,1,-136,-164)" stroke="rgb(255,204,0)">
      <path d="M151.4 179.4 L231.12 179.4 L231.12 194.4 L246.12 194.4 L246.12 207.4 L151.4 207.4 Z" stroke="none" clip-path="url(#clipPath2)"/>
      <path fill="white" d="M231.12 179.4 L231.12 194.4 L246.12 194.4 Z" clip-path="url(#clipPath2)" fill-rule="evenodd" stroke="none"/>
    </g>
    <g text-rendering="geometricPrecision" stroke-miterlimit="1.45" shape-rendering="geometricPrecision" transform="matrix(1,0,0,1,-136,-164)" stroke-linecap="butt">
      <path fill="none" d="M151.4 179.4 L231.12 179.4 L231.12 194.4 L246.12 194.4 L246.12 207.4 L151.4 207.4 Z" clip-path="url(#clipPath2)"/>
      <path fill="none" d="M231.12 179.4 L231.12 194.4 L246.12 194.4 Z" clip-path="url(#clipPath2)" fill-rule="evenodd"/>
      <text x="183.2799" xml:space="preserve" y="198.056" clip-path="url(#clipPath2)" font-family="sans-serif" stroke="none">stage</text>
    </g>
    <g fill="rgb(255,204,0)" text-rendering="geometricPrecision" shape-rendering="geometricPrecision" transform="matrix(1,0,0,1,-136,-164)" stroke="rgb(255,204,0)">
      <path d="M546.8 670.84 L631.8 670.84 L631.8 685.84 L646.8 685.84 L646.8 698.84 L546.8 698.84 Z" stroke="none" clip-path="url(#clipPath2)"/>
      <path fill="white" d="M631.8 670.84 L631.8 685.84 L646.8 685.84 Z" clip-path="url(#clipPath2)" fill-rule="evenodd" stroke="none"/>
    </g>
    <g text-rendering="geometricPrecision" stroke-miterlimit="1.45" shape-rendering="geometricPrecision" transform="matrix(1,0,0,1,-136,-164)" stroke-linecap="butt">
      <path fill="none" d="M546.8 670.84 L631.8 670.84 L631.8 685.84 L646.8 685.84 L646.8 698.84 L546.8 698.84 Z" clip-path="url(#clipPath2)"/>
      <path fill="none" d="M631.8 670.84 L631.8 685.84 L646.8 685.84 Z" clip-path="url(#clipPath2)" fill-rule="evenodd"/>
      <text x="585.9519" xml:space="preserve" y="689.496" clip-path="url(#clipPath2)" font-family="sans-serif" stroke="none">img</text>
    </g>
    <g fill="white" text-rendering="geometricPrecision" shape-rendering="geometricPrecision" transform="matrix(1,0,0,1,-136,-164)" stroke="white">
      <path d="M673.52 698.84 L768.24 698.84 L768.24 709.16 Q768.24 719.16 758.24 719.16 L683.52 719.16 Q673.52 719.16 673.52 709.16 Z" stroke="none" clip-path="url(#clipPath2)"/>
    </g>
    <g text-rendering="geometricPrecision" stroke-miterlimit="1.45" shape-rendering="geometricPrecision" transform="matrix(1,0,0,1,-136,-164)" stroke-linecap="butt">
      <path fill="none" d="M673.52 698.84 L768.24 698.84 L768.24 709.16 Q768.24 719.16 758.24 719.16 L683.52 719.16 Q673.52 719.16 673.52 709.16 Z" clip-path="url(#clipPath2)"/>
      <text x="698.6918" xml:space="preserve" y="713.656" clip-path="url(#clipPath2)" font-family="sans-serif" stroke="none">photo-1</text>
    </g>
    <g fill="white" text-rendering="geometricPrecision" shape-rendering="geometricPrecision" transform="matrix(1,0,0,1,-136,-164)" stroke="white">
      <path d="M673.52 728.84 L768.24 728.84 L768.24 739.16 Q768.24 749.16 758.24 749.16 L683.52 749.16 Q673.52 749.16 673.52 739.16 Z" stroke="none" clip-path="url(#clipPath2)"/>
    </g>
    <g text-rendering="geometricPrecision" stroke-miterlimit="1.45" shape-rendering="geometricPrecision" transform="matrix(1,0,0,1,-136,-164)" stroke-linecap="butt">
      <path fill="none" d="M673.52 728.84 L768.24 728.84 L768.24 739.16 Q768.24 749.16 758.24 749.16 L683.52 749.16 Q673.52 749.16 673.52 739.16 Z" clip-path="url(#clipPath2)"/>
      <text x="698.6918" xml:space="preserve" y="743.656" clip-path="url(#clipPath2)" font-family="sans-serif" stroke="none">photo-1</text>
    </g>
    <g fill="rgb(255,204,0)" text-rendering="geometricPrecision" shape-rendering="geometricPrecision" transform="matrix(1,0,0,1,-136,-164)" stroke="rgb(255,204,0)">
      <path d="M546.8 624.44 L631.8 624.44 L631.8 639.44 L646.8 639.44 L646.8 652.44 L546.8 652.44 Z" stroke="none" clip-path="url(#clipPath2)"/>
      <path fill="white" d="M631.8 624.44 L631.8 639.44 L646.8 639.44 Z" clip-path="url(#clipPath2)" fill-rule="evenodd" stroke="none"/>
    </g>
    <g text-rendering="geometricPrecision" stroke-miterlimit="1.45" shape-rendering="geometricPrecision" transform="matrix(1,0,0,1,-136,-164)" stroke-linecap="butt">
      <path fill="none" d="M546.8 624.44 L631.8 624.44 L631.8 639.44 L646.8 639.44 L646.8 652.44 L546.8 652.44 Z" clip-path="url(#clipPath2)"/>
      <path fill="none" d="M631.8 624.44 L631.8 639.44 L646.8 639.44 Z" clip-path="url(#clipPath2)" fill-rule="evenodd"/>
      <text x="560.2537" xml:space="preserve" y="643.096" clip-path="url(#clipPath2)" font-family="sans-serif" stroke="none">docs-officiels</text>
    </g>
    <g fill="rgb(255,204,0)" text-rendering="geometricPrecision" shape-rendering="geometricPrecision" transform="matrix(1,0,0,1,-136,-164)" stroke="rgb(255,204,0)">
      <path d="M546.8 758.84 L631.8 758.84 L631.8 773.84 L646.8 773.84 L646.8 786.84 L546.8 786.84 Z" stroke="none" clip-path="url(#clipPath2)"/>
      <path fill="white" d="M631.8 758.84 L631.8 773.84 L646.8 773.84 Z" clip-path="url(#clipPath2)" fill-rule="evenodd" stroke="none"/>
    </g>
    <g text-rendering="geometricPrecision" stroke-miterlimit="1.45" shape-rendering="geometricPrecision" transform="matrix(1,0,0,1,-136,-164)" stroke-linecap="butt">
      <path fill="none" d="M546.8 758.84 L631.8 758.84 L631.8 773.84 L646.8 773.84 L646.8 786.84 L546.8 786.84 Z" clip-path="url(#clipPath2)"/>
      <path fill="none" d="M631.8 758.84 L631.8 773.84 L646.8 773.84 Z" clip-path="url(#clipPath2)" fill-rule="evenodd"/>
      <text x="573.3159" xml:space="preserve" y="777.496" clip-path="url(#clipPath2)" font-family="sans-serif" stroke="none">livrables</text>
    </g>
    <g fill="rgb(255,204,0)" text-rendering="geometricPrecision" shape-rendering="geometricPrecision" transform="matrix(1,0,0,1,-136,-164)" stroke="rgb(255,204,0)">
      <path d="M546.8 804.84 L631.8 804.84 L631.8 819.84 L646.8 819.84 L646.8 832.84 L546.8 832.84 Z" stroke="none" clip-path="url(#clipPath2)"/>
      <path fill="white" d="M631.8 804.84 L631.8 819.84 L646.8 819.84 Z" clip-path="url(#clipPath2)" fill-rule="evenodd" stroke="none"/>
    </g>
    <g text-rendering="geometricPrecision" stroke-miterlimit="1.45" shape-rendering="geometricPrecision" transform="matrix(1,0,0,1,-136,-164)" stroke-linecap="butt">
      <path fill="none" d="M546.8 804.84 L631.8 804.84 L631.8 819.84 L646.8 819.84 L646.8 832.84 L546.8 832.84 Z" clip-path="url(#clipPath2)"/>
      <path fill="none" d="M631.8 804.84 L631.8 819.84 L646.8 819.84 Z" clip-path="url(#clipPath2)" fill-rule="evenodd"/>
      <text x="572.3978" xml:space="preserve" y="823.496" clip-path="url(#clipPath2)" font-family="sans-serif" stroke="none">tableaux</text>
    </g>
    <g fill="white" text-rendering="geometricPrecision" shape-rendering="geometricPrecision" transform="matrix(1,0,0,1,-136,-164)" stroke="white">
      <path d="M549.44 850.84 L644.16 850.84 L644.16 861.16 Q644.16 871.16 634.16 871.16 L559.44 871.16 Q549.44 871.16 549.44 861.16 Z" stroke="none" clip-path="url(#clipPath2)"/>
    </g>
    <g text-rendering="geometricPrecision" stroke-miterlimit="1.45" shape-rendering="geometricPrecision" transform="matrix(1,0,0,1,-136,-164)" stroke-linecap="butt">
      <path fill="none" d="M549.44 850.84 L644.16 850.84 L644.16 861.16 Q644.16 871.16 634.16 871.16 L559.44 871.16 Q549.44 871.16 549.44 861.16 Z" clip-path="url(#clipPath2)"/>
      <text x="581.0379" xml:space="preserve" y="865.656" clip-path="url(#clipPath2)" font-family="sans-serif" stroke="none">notes</text>
    </g>
    <g fill="rgb(255,204,0)" text-rendering="geometricPrecision" shape-rendering="geometricPrecision" transform="matrix(1,0,0,1,-136,-164)" stroke="rgb(255,204,0)">
      <path d="M291 888.04 L376 888.04 L376 903.04 L391 903.04 L391 916.04 L291 916.04 Z" stroke="none" clip-path="url(#clipPath2)"/>
      <path fill="white" d="M376 888.04 L376 903.04 L391 903.04 Z" clip-path="url(#clipPath2)" fill-rule="evenodd" stroke="none"/>
    </g>
    <g text-rendering="geometricPrecision" stroke-miterlimit="1.45" shape-rendering="geometricPrecision" transform="matrix(1,0,0,1,-136,-164)" stroke-linecap="butt">
      <path fill="none" d="M291 888.04 L376 888.04 L376 903.04 L391 903.04 L391 916.04 L291 916.04 Z" clip-path="url(#clipPath2)"/>
      <path fill="none" d="M376 888.04 L376 903.04 L391 903.04 Z" clip-path="url(#clipPath2)" fill-rule="evenodd"/>
      <text x="314.1498" xml:space="preserve" y="906.696" clip-path="url(#clipPath2)" font-family="sans-serif" stroke="none">redaction</text>
      <path fill="none" d="M341 245.0273 L341 259 L416.8301 259" clip-path="url(#clipPath2)"/>
      <path fill="none" d="M466.8 273.0273 L466.8 287 L546.8122 287" clip-path="url(#clipPath2)"/>
      <path fill="none" d="M466.8 273.0115 L466.8 330.56 L546.8122 330.56" clip-path="url(#clipPath2)"/>
      <path fill="none" d="M341 245.0115 L341 374.12 L416.8301 374.12" clip-path="url(#clipPath2)"/>
      <path fill="none" d="M466.8 388.1473 L466.8 402.12 L546.8122 402.12" clip-path="url(#clipPath2)"/>
      <path fill="none" d="M596.8 416.1347 L596.8 426.28 L673.5321 426.28" clip-path="url(#clipPath2)"/>
      <path fill="none" d="M596.8 416.1287 L596.8 456.56 L673.5321 456.56" clip-path="url(#clipPath2)"/>
      <path fill="none" d="M596.8 416.1435 L596.8 486.84 L673.5321 486.84" clip-path="url(#clipPath2)"/>
      <path fill="none" d="M416.8301 556.28 L341 556.28 L341 542.3074" clip-path="url(#clipPath2)"/>
      <path fill="none" d="M341 542.2664 L341 602.68 L416.8301 602.68" clip-path="url(#clipPath2)"/>
      <path fill="none" d="M198.8493 207.3898 L199 231 L290.9741 231" clip-path="url(#clipPath2)"/>
      <path fill="none" d="M198.7701 207.4215 L199 528.28 L290.9741 528.28" clip-path="url(#clipPath2)"/>
      <path fill="none" d="M466.8 616.6809 L466.8 684.84 L546.8122 684.84" clip-path="url(#clipPath2)"/>
      <path fill="none" d="M596.8 698.8547 L596.8 709 L673.5321 709" clip-path="url(#clipPath2)"/>
      <path fill="none" d="M596.8 698.8296 L596.8 739 L673.5321 739" clip-path="url(#clipPath2)"/>
      <path fill="none" d="M466.8 616.6837 L466.8 638.44 L546.8122 638.44" clip-path="url(#clipPath2)"/>
      <path fill="none" d="M466.8 616.68 L466.8 772.84 L546.8122 772.84" clip-path="url(#clipPath2)"/>
      <path fill="none" d="M466.8 616.6913 L466.8 818.84 L546.8122 818.84" clip-path="url(#clipPath2)"/>
      <path fill="none" d="M466.8 616.6492 L466.8 861 L549.4147 861" clip-path="url(#clipPath2)"/>
      <path fill="none" d="M198.76 207.3704 L198.76 902.04 L291.0285 902.04" clip-path="url(#clipPath2)"/>
    </g>
  </g>
</svg>
